<svg width="198" height="35" viewBox="0 0 198 35" fill="none" xmlns="http://www.w3.org/2000/svg" >
<path d="M55.18 10.24C53.78 8.7 51.83 7.93 49.33 7.93C47.25 7.93 45.73 8.33 44.77 9.13C43.83 9.91 43.36 10.97 43.36 12.31C43.36 13.21 43.58 13.93 44.02 14.47C44.46 14.99 45.13 15.41 46.03 15.73C46.95 16.05 48.14 16.36 49.6 16.66C51.14 16.98 52.47 17.36 53.59 17.8C54.71 18.22 55.57 18.8 56.17 19.54C56.79 20.28 57.1 21.28 57.1 22.54C57.1 24.42 56.4 25.83 55 26.77C53.6 27.71 51.76 28.18 49.48 28.18C46.18 28.18 43.37 27.12 41.05 25L41.86 23.77C42.74 24.69 43.83 25.43 45.13 25.99C46.45 26.55 47.92 26.83 49.54 26.83C51.38 26.83 52.83 26.49 53.89 25.81C54.95 25.11 55.48 24.08 55.48 22.72C55.48 21.78 55.23 21.02 54.73 20.44C54.25 19.86 53.51 19.39 52.51 19.03C51.53 18.65 50.29 18.3 48.79 17.98C47.29 17.66 46.02 17.3 44.98 16.9C43.94 16.5 43.15 15.96 42.61 15.28C42.07 14.6 41.8 13.68 41.8 12.52C41.8 11.24 42.11 10.16 42.73 9.28C43.37 8.38 44.25 7.7 45.37 7.24C46.51 6.78 47.83 6.55 49.33 6.55C50.71 6.55 51.94 6.76 53.02 7.18C54.1 7.58 55.08 8.2 55.96 9.04L55.18 10.24ZM67.1341 28.3C65.6741 28.3 64.3541 27.93 63.1741 27.19C62.0141 26.45 61.0941 25.46 60.4141 24.22C59.7541 22.98 59.4241 21.62 59.4241 20.14C59.4241 18.68 59.7541 17.35 60.4141 16.15C61.0741 14.93 61.9841 13.96 63.1441 13.24C64.3041 12.5 65.6041 12.13 67.0441 12.13C68.5241 12.13 69.8341 12.5 70.9741 13.24C72.1341 13.96 73.0441 14.93 73.7041 16.15C74.3641 17.37 74.6941 18.7 74.6941 20.14C74.6941 20.38 74.6841 20.6 74.6641 20.8H60.9841C61.0641 22 61.3941 23.08 61.9741 24.04C62.5541 24.98 63.2941 25.73 64.1941 26.29C65.1141 26.83 66.1141 27.1 67.1941 27.1C68.2741 27.1 69.2941 26.82 70.2541 26.26C71.2141 25.7 71.8841 24.98 72.2641 24.1L73.5841 24.46C73.2841 25.2 72.8041 25.86 72.1441 26.44C71.5041 27.02 70.7441 27.48 69.8641 27.82C69.0041 28.14 68.0941 28.3 67.1341 28.3ZM60.9241 19.63H73.2541C73.1741 18.41 72.8441 17.33 72.2641 16.39C71.7041 15.43 70.9741 14.69 70.0741 14.17C69.1741 13.63 68.1741 13.36 67.0741 13.36C65.9741 13.36 64.9741 13.63 64.0741 14.17C63.1741 14.71 62.4441 15.46 61.8841 16.42C61.3241 17.36 61.0041 18.43 60.9241 19.63ZM78.1143 6.1H79.6443V24.91C79.6443 25.63 79.7943 26.13 80.0943 26.41C80.3943 26.67 80.7843 26.8 81.2643 26.8C81.5843 26.8 81.9143 26.77 82.2543 26.71C82.5943 26.65 82.8943 26.57 83.1543 26.47L83.4543 27.7C83.1143 27.82 82.6943 27.93 82.1943 28.03C81.6943 28.13 81.2643 28.18 80.9043 28.18C80.0643 28.18 79.3843 27.93 78.8643 27.43C78.3643 26.91 78.1143 26.22 78.1143 25.36V6.1ZM86.448 28V13.63H84.258V12.4H86.448V11.89C86.448 9.99 86.838 8.5 87.618 7.42C88.418 6.34 89.498 5.8 90.858 5.8C91.458 5.8 92.038 5.89 92.598 6.07C93.158 6.25 93.618 6.49 93.978 6.79L93.438 7.87C92.838 7.37 92.068 7.12 91.128 7.12C90.108 7.12 89.318 7.53 88.758 8.35C88.218 9.15 87.948 10.32 87.948 11.86V12.4H92.388V13.63H87.948V28H86.448ZM111.339 28.15C109.899 28.15 108.569 27.84 107.349 27.22C106.129 26.6 105.069 25.78 104.169 24.76C103.269 23.72 102.569 22.56 102.069 21.28C101.589 19.98 101.349 18.66 101.349 17.32C101.349 15.92 101.589 14.58 102.069 13.3C102.549 12 103.229 10.85 104.109 9.85C104.989 8.83 106.029 8.03 107.229 7.45C108.429 6.85 109.739 6.55 111.159 6.55C113.279 6.55 114.989 6.99 116.289 7.87C117.589 8.73 118.589 9.84 119.289 11.2L118.029 11.95C117.309 10.55 116.349 9.54 115.149 8.92C113.969 8.28 112.629 7.96 111.129 7.96C109.869 7.96 108.729 8.23 107.709 8.77C106.689 9.29 105.819 10 105.099 10.9C104.379 11.78 103.829 12.78 103.449 13.9C103.069 15.02 102.879 16.17 102.879 17.35C102.879 18.59 103.099 19.78 103.539 20.92C103.979 22.04 104.589 23.04 105.369 23.92C106.149 24.8 107.059 25.49 108.099 25.99C109.139 26.49 110.249 26.74 111.429 26.74C112.729 26.74 113.959 26.44 115.119 25.84C116.279 25.24 117.409 24.29 118.509 22.99V18.88H113.679V17.65H119.829V28H118.509V24.67C116.449 26.99 114.059 28.15 111.339 28.15ZM122.583 23.5C122.583 22.58 122.853 21.77 123.393 21.07C123.953 20.37 124.723 19.83 125.703 19.45C126.703 19.05 127.843 18.85 129.123 18.85C129.923 18.85 130.753 18.92 131.613 19.06C132.493 19.2 133.263 19.39 133.923 19.63V18.16C133.923 16.72 133.503 15.57 132.663 14.71C131.823 13.85 130.683 13.42 129.243 13.42C128.463 13.42 127.653 13.58 126.813 13.9C125.973 14.22 125.113 14.68 124.233 15.28L123.603 14.2C125.643 12.82 127.573 12.13 129.393 12.13C131.233 12.13 132.693 12.68 133.773 13.78C134.873 14.88 135.423 16.38 135.423 18.28V26.02C135.423 26.5 135.643 26.75 136.083 26.77V28C135.703 28.04 135.453 28.05 135.333 28.03C134.953 27.99 134.653 27.83 134.433 27.55C134.233 27.27 134.123 26.98 134.103 26.68V25.45C133.383 26.35 132.453 27.05 131.313 27.55C130.193 28.05 129.013 28.3 127.773 28.3C126.793 28.3 125.903 28.09 125.103 27.67C124.323 27.23 123.703 26.65 123.243 25.93C122.803 25.21 122.583 24.4 122.583 23.5ZM133.323 24.79C133.723 24.29 133.923 23.82 133.923 23.38V20.8C132.483 20.24 130.933 19.96 129.273 19.96C127.693 19.96 126.423 20.28 125.463 20.92C124.503 21.54 124.023 22.37 124.023 23.41C124.023 24.07 124.193 24.68 124.533 25.24C124.873 25.8 125.343 26.25 125.943 26.59C126.563 26.93 127.273 27.1 128.073 27.1C129.193 27.1 130.223 26.89 131.163 26.47C132.103 26.03 132.823 25.47 133.323 24.79ZM140.106 6.1H141.636V24.91C141.636 25.63 141.786 26.13 142.086 26.41C142.386 26.67 142.776 26.8 143.256 26.8C143.576 26.8 143.906 26.77 144.246 26.71C144.586 26.65 144.886 26.57 145.146 26.47L145.446 27.7C145.106 27.82 144.686 27.93 144.186 28.03C143.686 28.13 143.256 28.18 142.896 28.18C142.056 28.18 141.376 27.93 140.856 27.43C140.356 26.91 140.106 26.22 140.106 25.36V6.1ZM147.87 6.1H149.4V24.91C149.4 25.63 149.55 26.13 149.85 26.41C150.15 26.67 150.54 26.8 151.02 26.8C151.34 26.8 151.67 26.77 152.01 26.71C152.35 26.65 152.65 26.57 152.91 26.47L153.21 27.7C152.87 27.82 152.45 27.93 151.95 28.03C151.45 28.13 151.02 28.18 150.66 28.18C149.82 28.18 149.14 27.93 148.62 27.43C148.12 26.91 147.87 26.22 147.87 25.36V6.1ZM162.144 28.3C160.684 28.3 159.364 27.93 158.184 27.19C157.024 26.45 156.104 25.46 155.424 24.22C154.764 22.98 154.434 21.62 154.434 20.14C154.434 18.68 154.764 17.35 155.424 16.15C156.084 14.93 156.994 13.96 158.154 13.24C159.314 12.5 160.614 12.13 162.054 12.13C163.534 12.13 164.844 12.5 165.984 13.24C167.144 13.96 168.054 14.93 168.714 16.15C169.374 17.37 169.704 18.7 169.704 20.14C169.704 20.38 169.694 20.6 169.674 20.8H155.994C156.074 22 156.404 23.08 156.984 24.04C157.564 24.98 158.304 25.73 159.204 26.29C160.124 26.83 161.124 27.1 162.204 27.1C163.284 27.1 164.304 26.82 165.264 26.26C166.224 25.7 166.894 24.98 167.274 24.1L168.594 24.46C168.294 25.2 167.814 25.86 167.154 26.44C166.514 27.02 165.754 27.48 164.874 27.82C164.014 28.14 163.104 28.3 162.144 28.3ZM155.934 19.63H168.264C168.184 18.41 167.854 17.33 167.274 16.39C166.714 15.43 165.984 14.69 165.084 14.17C164.184 13.63 163.184 13.36 162.084 13.36C160.984 13.36 159.984 13.63 159.084 14.17C158.184 14.71 157.454 15.46 156.894 16.42C156.334 17.36 156.014 18.43 155.934 19.63ZM180.384 13.75C178.984 13.79 177.754 14.21 176.694 15.01C175.654 15.79 174.924 16.87 174.504 18.25V28H173.004V12.4H174.444V16.24C174.984 15.16 175.704 14.27 176.604 13.57C177.504 12.87 178.454 12.47 179.454 12.37C179.654 12.37 179.824 12.37 179.964 12.37C180.124 12.35 180.264 12.34 180.384 12.34V13.75ZM184.279 33.28C184.599 33.3 184.879 33.3 185.119 33.28C185.379 33.28 185.569 33.24 185.689 33.16C185.869 33.12 186.049 32.96 186.229 32.68C186.409 32.42 186.659 31.93 186.979 31.21C187.319 30.49 187.779 29.42 188.359 28L181.399 12.4H182.989L189.169 26.41L194.899 12.4H196.429L187.879 32.92C187.699 33.38 187.419 33.77 187.039 34.09C186.659 34.41 186.159 34.59 185.539 34.63C185.359 34.65 185.159 34.66 184.939 34.66C184.739 34.68 184.519 34.68 184.279 34.66V33.28Z" fill="#0B0033"/>
<path d="M2.8125 4.625C1.23047 4.625 0 5.91406 0 7.4375V28.0625C0 29.6445 1.23047 30.875 2.8125 30.875H27.1875C28.7109 30.875 30 29.6445 30 28.0625V7.4375C30 5.91406 28.7109 4.625 27.1875 4.625H2.8125ZM2.8125 6.5H9.02344C9.19922 6.5 9.375 6.67578 9.375 6.85156V8.02344C9.375 8.25781 9.19922 8.375 9.02344 8.375H2.22656C1.99219 8.375 1.875 8.25781 1.875 8.02344V7.4375C1.875 6.96875 2.28516 6.5 2.8125 6.5ZM27.7734 12.125H2.22656C1.99219 12.125 1.875 12.0078 1.875 11.7734V9.66406C1.875 9.48828 1.99219 9.3125 2.22656 9.3125H10.3125L12.0703 6.67578C12.1289 6.55859 12.2461 6.5 12.3633 6.5H27.1875C27.6562 6.5 28.125 6.96875 28.125 7.4375V11.7734C28.125 12.0078 27.9492 12.125 27.7734 12.125ZM15 27.5938C11.0742 27.5938 7.96875 24.4883 7.96875 20.5625C7.96875 16.6953 11.0742 13.5312 15 13.5312C18.8672 13.5312 22.0312 16.6953 22.0312 20.5625C22.0312 24.4883 18.8672 27.5938 15 27.5938ZM15 15.4062C12.1289 15.4062 9.84375 17.75 9.84375 20.5625C9.84375 23.4336 12.1289 25.7188 15 25.7188C17.8125 25.7188 20.1562 23.4336 20.1562 20.5625C20.1562 17.75 17.8125 15.4062 15 15.4062ZM12.1875 21.5C11.6602 21.5 11.25 21.0898 11.25 20.5625C11.25 18.5117 12.8906 16.8125 15 16.8125C15.4688 16.8125 15.9375 17.2812 15.9375 17.75C15.9375 18.2773 15.4688 18.6875 15 18.6875C13.9453 18.6875 13.125 19.5664 13.125 20.5625C13.125 21.0898 12.6562 21.5 12.1875 21.5Z" fill="#0B0033"/>
</svg>