<svg width="1440" height="389" viewBox="0 0 1440 389" fill="none" xmlns="http://www.w3.org/2000/svg">
<path fill-rule="evenodd" clip-rule="evenodd" d="M0 217.279L49.0511 224.288C94.5985 231.297 192.701 245.315 287.299 231.297C385.401 217.279 480 175.225 574.599 182.234C672.701 189.243 767.299 245.315 865.401 252.324C960 259.333 1054.6 217.279 1152.7 164.712C1247.3 115.649 1345.4 59.5766 1390.95 31.5405L1440 0V389H1390.95C1345.4 389 1247.3 389 1152.7 389C1054.6 389 960 389 865.401 389C767.299 389 672.701 389 574.599 389C480 389 385.401 389 287.299 389C192.701 389 94.5985 389 49.0511 389H0V217.279Z" fill="#CE8964"/>
</svg>
